<svg width="32" height="32" viewBox="0 0 32 32" fill="none" xmlns="http://www.w3.org/2000/svg">
<path d="M26.576 5.36297C23.886 2.67297 20.17 1.00897 16.065 1.00897C7.85595 1.00897 1.19995 7.66397 1.19995 15.874C1.19995 18.606 1.93695 21.165 3.22195 23.365L3.18395 23.295L1.07495 30.997L8.95395 28.93C11.005 30.069 13.452 30.739 16.056 30.739H16.062C24.271 30.736 30.924 24.08 30.924 15.871C30.924 11.768 29.262 8.05397 26.575 5.36397L26.576 5.36297ZM16.062 28.228H16.057C13.738 28.228 11.567 27.588 9.71395 26.475L9.76995 26.506L9.31895 26.239L4.64395 27.466L5.89095 22.907L5.59695 22.44C4.41195 20.578 3.70795 18.309 3.70795 15.875C3.70795 9.05297 9.23895 3.52197 16.061 3.52197C22.883 3.52197 28.4139 9.05297 28.4139 15.875C28.4139 22.697 22.885 28.228 16.062 28.228ZM22.8379 18.977C22.4669 18.791 20.641 17.894 20.301 17.769C19.96 17.645 19.712 17.584 19.464 17.956C19.218 18.327 18.5059 19.163 18.2889 19.411C18.073 19.66 17.8549 19.69 17.4839 19.505C16.334 19.039 15.346 18.418 14.487 17.653L14.497 17.662C13.698 16.922 13.013 16.075 12.46 15.141L12.432 15.089C12.216 14.718 12.409 14.517 12.594 14.332C12.761 14.166 12.966 13.898 13.151 13.682C13.297 13.503 13.422 13.298 13.517 13.078L13.523 13.061C13.566 12.974 13.591 12.873 13.591 12.765C13.591 12.634 13.554 12.512 13.49 12.408L13.492 12.411C13.398 12.225 12.656 10.397 12.347 9.65297C12.045 8.92897 11.738 9.02797 11.511 9.01597C11.295 9.00597 11.047 9.00397 10.799 9.00397C10.404 9.01397 10.053 9.19197 9.81095 9.46697L9.80995 9.46897C9.00795 10.23 8.50995 11.303 8.50995 12.492C8.50995 12.518 8.50995 12.545 8.51095 12.571V12.567C8.64195 14.034 9.19195 15.351 10.038 16.424L10.026 16.409C11.63 18.788 13.768 20.691 16.277 21.973L16.371 22.016C16.919 22.264 17.621 22.529 18.339 22.756L18.488 22.797C18.93 22.937 19.4389 23.018 19.9669 23.018C20.2699 23.018 20.568 22.991 20.856 22.94L20.825 22.944C21.894 22.721 22.781 22.076 23.322 21.195L23.3309 21.178C23.496 20.812 23.5919 20.385 23.5919 19.936C23.5919 19.751 23.576 19.57 23.545 19.394L23.548 19.413C23.456 19.258 23.208 19.166 22.836 18.979L22.8379 18.977Z" fill="white"/>
</svg>
