<svg width="20" height="20" viewBox="0 0 20 20" fill="none" xmlns="http://www.w3.org/2000/svg">
<path d="M17.5 16.875C17.5 17.22 17.22 17.5 16.875 17.5C16.53 17.5 16.25 17.22 16.25 16.875C16.25 16.53 16.53 16.25 16.875 16.25C17.22 16.25 17.5 16.53 17.5 16.875ZM18.4375 18.4375C18.0063 18.8687 17.4406 19.085 16.875 19.085C16.3094 19.085 15.7437 18.8694 15.3125 18.4375L7.22687 10.3519C6.72375 10.525 6.18687 10.625 5.625 10.625C2.86813 10.625 0.625 8.38188 0.625 5.625C0.625 5.21125 0.680625 4.78687 0.79125 4.36375C0.8475 4.14687 1.01562 3.97688 1.2325 3.91813C1.28688 3.90313 1.34187 3.89625 1.39625 3.89625C1.56 3.89625 1.71938 3.96062 1.83812 4.07938L3.49125 5.7325C3.7275 5.96812 4.04125 6.09812 4.375 6.09812C4.70875 6.09812 5.0225 5.96812 5.25875 5.73187L5.73187 5.25875C5.96812 5.0225 6.09812 4.70875 6.09812 4.375C6.09812 4.04125 5.96812 3.7275 5.73187 3.49125L4.07938 1.83812C3.92062 1.67937 3.85938 1.44812 3.91813 1.23187C3.97688 1.01562 4.14687 0.8475 4.36375 0.790625C4.78687 0.680625 5.21125 0.625 5.625 0.625C8.38188 0.625 10.625 2.86813 10.625 5.625C10.625 6.18687 10.525 6.72375 10.3519 7.22687L18.4375 15.3125C19.3006 16.1756 19.3006 17.5744 18.4375 18.4375ZM17.9956 15.7544L9.62813 7.38688C9.86562 6.8475 10 6.2525 10 5.625C10 3.20875 8.04125 1.25 5.625 1.25C5.24312 1.25 4.87438 1.30375 4.52125 1.39625L6.17437 3.04938C6.90687 3.78188 6.90687 4.96875 6.17437 5.70125L5.70063 6.17437C5.335 6.54 4.855 6.72312 4.375 6.72312C3.895 6.72312 3.415 6.54 3.04938 6.17375L1.39625 4.52125C1.30375 4.87438 1.25 5.24312 1.25 5.625C1.25 8.04125 3.20875 10 5.625 10C6.2525 10 6.8475 9.86562 7.38688 9.62813L15.7544 17.9956C16.0538 18.295 16.4519 18.46 16.875 18.46C17.2981 18.46 17.6962 18.295 17.9956 17.9956C18.6131 17.3775 18.6131 16.3725 17.9956 15.7544Z" fill="#959595"/>
</svg>
