<svg width="25" height="25" viewBox="0 0 25 25" fill="none" xmlns="http://www.w3.org/2000/svg">
<path d="M21.7998 0C23.5671 0 25 1.43288 25 3.2002V4.86719C24.4755 3.67494 23.6735 2.7247 22.5928 2.0166C21.2895 1.14773 19.754 0.712898 17.9863 0.712891C16.4883 0.712891 15.1249 1.05796 13.8965 1.74707C12.6832 2.42119 11.7246 3.37225 11.0205 4.60059C10.3314 5.81403 9.98633 7.19234 9.98633 8.73535C9.98636 10.2783 10.3314 11.6567 11.0205 12.8701C11.7246 14.0834 12.6832 15.0346 13.8965 15.7236C15.1249 16.3978 16.4957 16.7344 18.0088 16.7344C19.357 16.7344 20.5708 16.4576 21.6494 15.9033C22.7429 15.3341 23.6342 14.585 24.3232 13.6562C24.5832 13.3058 24.8083 12.9432 25 12.5693V21.7998C25 23.5671 23.5671 25 21.7998 25H3.2002C1.8006 25 0.611255 24.1013 0.176758 22.8496H2.78809L3.82129 19.8613H10.0684L11.1016 22.8496H14.4277L8.78711 7.14258H5.125L0 21.4131V3.2002C0 1.43288 1.43288 0 3.2002 0H21.7998ZM9.21484 17.3447H4.6748L6.94434 10.7832L9.21484 17.3447ZM17.9863 3.61133C18.8252 3.61133 19.5593 3.78436 20.1885 4.12891C20.8176 4.47344 21.3124 4.97475 21.6719 5.63379H25V7.88086H17.1777V10.2852H22.5703C22.3306 11.4237 21.8285 12.3158 21.0645 12.96C20.3005 13.589 19.3194 13.9033 18.1211 13.9033C17.1474 13.9033 16.2936 13.6938 15.5596 13.2744C14.8255 12.855 14.2486 12.2556 13.8291 11.4766C13.4247 10.6976 13.2227 9.78389 13.2227 8.73535C13.2227 7.71683 13.4248 6.81797 13.8291 6.03906C14.2336 5.26006 14.7956 4.66067 15.5146 4.24121C16.2337 3.82175 17.0575 3.61133 17.9863 3.61133Z" fill="white"/>
</svg>
